<?xml version="1.0" standalone="no"?>
<!DOCTYPE svg PUBLIC "-//W3C//DTD SVG 20010904//EN"
 "http://www.w3.org/TR/2001/REC-SVG-20010904/DTD/svg10.dtd">
<svg version="1.0" xmlns="http://www.w3.org/2000/svg"
 width="667.000000pt" height="667.000000pt" viewBox="0 0 667.000000 667.000000"
 preserveAspectRatio="xMidYMid meet">
<metadata>
Created by potrace 1.14, written by Peter Selinger 2001-2017
</metadata>
<g transform="translate(0.000000,667.000000) scale(0.100000,-0.100000)"
fill="#000000" stroke="none">
<path d="M1951 4569 c-138 -23 -287 -98 -396 -201 -397 -370 -296 -1030 193
-1269 109 -53 231 -79 379 -79 132 0 109 21 238 -214 104 -190 117 -223 117
-301 1 -52 -5 -71 -41 -142 -32 -61 -49 -112 -67 -200 -27 -135 -29 -210 -9
-303 45 -201 20 -431 -57 -524 -67 -82 -203 -144 -363 -166 -263 -37 -767 37
-1234 181 -35 10 -65 18 -67 16 -7 -6 187 -238 288 -342 385 -401 851 -692
1380 -863 485 -157 1008 -201 1508 -126 123 18 339 63 358 73 9 5 -21 20 -80
40 -51 18 -156 59 -233 92 -589 248 -916 593 -915 963 0 67 7 99 35 181 45
127 84 192 165 276 70 72 148 125 223 153 117 44 237 164 322 325 83 157 198
305 369 477 124 124 166 159 231 195 130 71 198 145 175 189 -10 19 -7 20 94
20 143 0 252 22 363 75 145 68 234 144 322 274 171 251 173 595 6 856 -114
179 -314 310 -526 345 -80 12 -2700 12 -2778 -1z m313 -356 c84 -24 135 -54
195 -118 157 -166 159 -421 5 -586 -246 -262 -676 -130 -737 227 -22 126 21
261 115 360 109 116 269 160 422 117z m2430 -10 c84 -24 135 -54 195 -118 157
-166 159 -421 5 -586 -246 -262 -676 -130 -737 227 -22 126 21 261 115 360
109 116 269 160 422 117z m-1236 -1212 c-90 -57 -150 -146 -285 -418 l-125
-253 -46 0 c-111 1 -223 99 -307 270 -19 37 -24 67 -27 160 -5 138 -25 192
-91 240 l-41 30 484 0 484 0 -46 -29z m497 7 c-75 -39 -276 -255 -503 -538
-63 -78 -82 -96 -77 -74 59 257 94 340 197 465 67 81 86 123 70 150 -12 18 -6
19 170 19 l183 -1 -40 -21z m300 12 c-3 -5 -10 -10 -16 -10 -5 0 -9 5 -9 10 0
6 7 10 16 10 8 0 12 -4 9 -10z"/>
</g>
</svg>
